<?xml version="1.0" encoding="UTF-8" standalone="no"?>
<svg
   xmlns:dc="http://purl.org/dc/elements/1.1/"
   xmlns:cc="http://creativecommons.org/ns#"
   xmlns:rdf="http://www.w3.org/1999/02/22-rdf-syntax-ns#"
   xmlns:svg="http://www.w3.org/2000/svg"
   xmlns="http://www.w3.org/2000/svg"
   viewBox="0 0 3739.5698 1186.0709"
   height="1186.0709"
   width="3739.5698"
   xml:space="preserve"
   id="svg2"
   version="1.1">
  <style>
    path {
      stroke: #ffffff !important;
      stroke-width: 1;
    }
  </style>
  <metadata
     id="metadata8"><rdf:RDF><cc:Work
         rdf:about=""><dc:format>image/svg+xml</dc:format><dc:type
           rdf:resource="http://purl.org/dc/dcmitype/StillImage" /><dc:title></dc:title></cc:Work></rdf:RDF></metadata><defs
     id="defs6"><clipPath
       id="clipPath18"
       clipPathUnits="userSpaceOnUse"><path
         id="path16"
         d="M 0,1500.209 H 3587.001 V 0 H 0 Z" /></clipPath><clipPath
       id="clipPath30"
       clipPathUnits="userSpaceOnUse"><path
         id="path28"
         d="M 0,1500.209 H 3587.001 V 0 H 0 Z" /></clipPath><linearGradient
       id="linearGradient56"
       spreadMethod="pad"
       gradientTransform="matrix(0,-191.75009,-191.75009,0,1686.9988,824.85736)"
       gradientUnits="userSpaceOnUse"
       y2="0"
       x2="1"
       y1="0"
       x1="0"><stop
         id="stop48"
         offset="0"
         style="stop-opacity:1;stop-color:#e80570" /><stop
         id="stop50"
         offset="0.52023495"
         style="stop-opacity:1;stop-color:#e80570" /><stop
         id="stop52"
         offset="0.837552"
         style="stop-opacity:1;stop-color:#c41c7d" /><stop
         id="stop54"
         offset="1"
         style="stop-opacity:1;stop-color:#c41c7d" /></linearGradient><linearGradient
       id="linearGradient80"
       spreadMethod="pad"
       gradientTransform="matrix(0,-155.44485,-155.44485,0,1622.1665,638.55951)"
       gradientUnits="userSpaceOnUse"
       y2="0"
       x2="1"
       y1="0"
       x1="0"><stop
         id="stop72"
         offset="0"
         style="stop-opacity:1;stop-color:#e80570" /><stop
         id="stop74"
         offset="0.52023495"
         style="stop-opacity:1;stop-color:#e80570" /><stop
         id="stop76"
         offset="0.837552"
         style="stop-opacity:1;stop-color:#c41c7d" /><stop
         id="stop78"
         offset="1"
         style="stop-opacity:1;stop-color:#c41c7d" /></linearGradient><linearGradient
       id="linearGradient104"
       spreadMethod="pad"
       gradientTransform="matrix(0,-191.67688,-191.67688,0,1835.4348,848.98022)"
       gradientUnits="userSpaceOnUse"
       y2="0"
       x2="1"
       y1="0"
       x1="0"><stop
         id="stop96"
         offset="0"
         style="stop-opacity:1;stop-color:#e80570" /><stop
         id="stop98"
         offset="0.52023495"
         style="stop-opacity:1;stop-color:#e80570" /><stop
         id="stop100"
         offset="0.837552"
         style="stop-opacity:1;stop-color:#c41c7d" /><stop
         id="stop102"
         offset="1"
         style="stop-opacity:1;stop-color:#c41c7d" /></linearGradient><linearGradient
       id="linearGradient128"
       spreadMethod="pad"
       gradientTransform="matrix(0,-191.52802,-191.52802,0,1538.371,806.68951)"
       gradientUnits="userSpaceOnUse"
       y2="0"
       x2="1"
       y1="0"
       x1="0"><stop
         id="stop120"
         offset="0"
         style="stop-opacity:1;stop-color:#e80570" /><stop
         id="stop122"
         offset="0.52023495"
         style="stop-opacity:1;stop-color:#e80570" /><stop
         id="stop124"
         offset="0.837552"
         style="stop-opacity:1;stop-color:#c41c7d" /><stop
         id="stop126"
         offset="1"
         style="stop-opacity:1;stop-color:#c41c7d" /></linearGradient><linearGradient
       id="linearGradient152"
       spreadMethod="pad"
       gradientTransform="matrix(0,-135.4897,-135.4897,0,1631.2671,977.35382)"
       gradientUnits="userSpaceOnUse"
       y2="0"
       x2="1"
       y1="0"
       x1="0"><stop
         id="stop144"
         offset="0"
         style="stop-opacity:1;stop-color:#e80570" /><stop
         id="stop146"
         offset="0.52023495"
         style="stop-opacity:1;stop-color:#e80570" /><stop
         id="stop148"
         offset="0.837552"
         style="stop-opacity:1;stop-color:#c41c7d" /><stop
         id="stop150"
         offset="1"
         style="stop-opacity:1;stop-color:#c41c7d" /></linearGradient><linearGradient
       id="linearGradient176"
       spreadMethod="pad"
       gradientTransform="matrix(0,-129.01289,-129.01289,0,1778.3545,660.64349)"
       gradientUnits="userSpaceOnUse"
       y2="0"
       x2="1"
       y1="0"
       x1="0"><stop
         id="stop168"
         offset="0"
         style="stop-opacity:1;stop-color:#e80570" /><stop
         id="stop170"
         offset="0.52023495"
         style="stop-opacity:1;stop-color:#e80570" /><stop
         id="stop172"
         offset="0.837552"
         style="stop-opacity:1;stop-color:#c41c7d" /><stop
         id="stop174"
         offset="1"
         style="stop-opacity:1;stop-color:#c41c7d" /></linearGradient><linearGradient
       id="linearGradient200"
       spreadMethod="pad"
       gradientTransform="matrix(0,-116.88238,-116.88238,0,1809.0465,943.02258)"
       gradientUnits="userSpaceOnUse"
       y2="0"
       x2="1"
       y1="0"
       x1="0"><stop
         id="stop192"
         offset="0"
         style="stop-opacity:1;stop-color:#e80570" /><stop
         id="stop194"
         offset="0.52023495"
         style="stop-opacity:1;stop-color:#e80570" /><stop
         id="stop196"
         offset="0.837552"
         style="stop-opacity:1;stop-color:#c41c7d" /><stop
         id="stop198"
         offset="1"
         style="stop-opacity:1;stop-color:#c41c7d" /></linearGradient><linearGradient
       id="linearGradient224"
       spreadMethod="pad"
       gradientTransform="matrix(0,-107.68369,-107.68369,0,1550.1543,908.48938)"
       gradientUnits="userSpaceOnUse"
       y2="0"
       x2="1"
       y1="0"
       x1="0"><stop
         id="stop216"
         offset="0"
         style="stop-opacity:1;stop-color:#e80570" /><stop
         id="stop218"
         offset="0.52023495"
         style="stop-opacity:1;stop-color:#e80570" /><stop
         id="stop220"
         offset="0.837552"
         style="stop-opacity:1;stop-color:#c41c7d" /><stop
         id="stop222"
         offset="1"
         style="stop-opacity:1;stop-color:#c41c7d" /></linearGradient><linearGradient
       id="linearGradient248"
       spreadMethod="pad"
       gradientTransform="matrix(0,-143.81119,-143.81119,0,1776.2075,604.71967)"
       gradientUnits="userSpaceOnUse"
       y2="0"
       x2="1"
       y1="0"
       x1="0"><stop
         id="stop240"
         offset="0"
         style="stop-opacity:1;stop-color:#e80570" /><stop
         id="stop242"
         offset="0.52023495"
         style="stop-opacity:1;stop-color:#e80570" /><stop
         id="stop244"
         offset="0.837552"
         style="stop-opacity:1;stop-color:#c41c7d" /><stop
         id="stop246"
         offset="1"
         style="stop-opacity:1;stop-color:#c41c7d" /></linearGradient><linearGradient
       id="linearGradient272"
       spreadMethod="pad"
       gradientTransform="matrix(0,-134.54231,-134.54231,0,1735.9351,992.53101)"
       gradientUnits="userSpaceOnUse"
       y2="0"
       x2="1"
       y1="0"
       x1="0"><stop
         id="stop264"
         offset="0"
         style="stop-opacity:1;stop-color:#e80570" /><stop
         id="stop266"
         offset="0.52023495"
         style="stop-opacity:1;stop-color:#e80570" /><stop
         id="stop268"
         offset="0.837552"
         style="stop-opacity:1;stop-color:#c41c7d" /><stop
         id="stop270"
         offset="1"
         style="stop-opacity:1;stop-color:#c41c7d" /></linearGradient><clipPath
       id="clipPath282"
       clipPathUnits="userSpaceOnUse"><path
         id="path280"
         d="M 0,1500.209 H 3587.001 V 0 H 0 Z" /></clipPath><clipPath
       id="clipPath338"
       clipPathUnits="userSpaceOnUse"><path
         id="path336"
         d="M 0,1500.209 H 3587.001 V 0 H 0 Z" /></clipPath></defs><g
     transform="matrix(1.3333333,0,0,-1.3333333,-433.87674,1672.0521)"
     id="g10"><g
       id="g12"><g
         clip-path="url(#clipPath18)"
         id="g14"><g
           transform="translate(2273.4668,575.7441)"
           id="g20"><path
             id="path22"
             style="fill:#645d62;fill-opacity:1;fill-rule:evenodd;stroke:none"
             d="m 0,0 c 11.688,-17.536 29.004,-23.397 47.739,-27.7 19.606,-4.502 36.738,2.273 54.357,9.145 9.969,-7.906 22.38,-10.941 34.31,-10.713 12.984,0.248 26.261,3.494 37.38,11.677 4.57,3.364 9.193,6.656 14.225,10.293 12.599,-14.025 29.459,-18.077 46.494,-21.225 17.721,-3.276 33.764,3.441 49.799,9.985 10.131,-7.941 22.547,-10.988 34.47,-10.718 13.244,0.3 26.758,3.629 37.981,12.159 5.515,4.191 11.058,8.342 16.894,12.743 14.068,-18.473 34.03,-24.42 55.573,-24.082 22.269,0.35 40.915,9.79 53.482,29.645 3.025,-3.495 5.114,-6.705 7.941,-9.014 6.539,-5.341 12.811,-11.629 20.327,-15.013 12.265,-5.524 25.632,-8.992 39.201,-8.768 21.295,0.352 41.701,4.769 58.935,18.452 7,5.558 13.627,11.585 20.53,17.487 11.724,-13.597 26.632,-23.595 44.791,-28.376 8.205,-2.161 16.44,-4.336 24.789,-5.778 6.58,-1.135 13.539,-2.4 20.01,-1.445 22.708,3.352 43.881,10.561 62.704,24.682 26.751,20.065 38.294,46.751 36.495,79.338 -1.157,20.985 -6.487,40.956 -20.746,57.471 -1.403,1.625 -2.395,3.604 -3.524,5.335 0.856,1.237 1.348,2.119 1.996,2.866 9.245,10.633 12.326,23.761 14.974,37.051 0.288,1.444 0.397,3.053 0.079,4.47 -2.668,11.901 -4.307,24.194 -13.072,33.779 -2.18,2.384 -3.787,5.283 -5.845,7.792 -11.903,14.515 -26.327,25.097 -45.159,28.776 -3.428,0.67 -6.818,1.541 -10.207,2.394 -11.387,2.865 -22.776,2.631 -34.154,0.027 -4.867,-1.112 -9.669,-2.516 -14.552,-3.541 -10.22,-2.146 -19.337,-6.652 -27.673,-12.782 -6.4,-4.707 -12.631,-9.645 -19.238,-14.713 -2.071,2.812 -4.174,5.548 -6.147,8.375 -4.733,6.788 -11.254,11.756 -18.721,14.452 -15.412,5.565 -31.403,8.155 -47.866,5.145 -2.208,-0.403 -4.428,-0.779 -6.659,-1.022 -13.164,-1.429 -26.361,-2.593 -39.49,-4.286 -10.665,-1.377 -21.273,-3.295 -29.533,-11.215 -1.96,-1.877 -4.018,-3.653 -6.179,-5.608 -12.643,14.014 -29.058,18.218 -46.795,17.989 -6.623,-0.086 -13.212,-2.399 -19.828,-3.636 -18.437,-3.447 -32.281,-13.867 -43.389,-28.474 -0.861,-1.133 -1.784,-2.22 -3.169,-3.939 -2.384,3.244 -4.372,6.054 -6.468,8.78 -9.713,12.633 -22.209,21.698 -37.193,26.701 -9.657,3.225 -19.827,5.011 -29.858,6.97 -4.856,0.949 -9.987,1.492 -14.885,1.046 -18.666,-1.697 -37.164,-4.554 -55.337,-9.329 -8.075,-2.121 -15.762,-5.068 -22.204,-10.412 -6.86,-5.689 -13.356,-11.819 -20.256,-17.975 -0.294,0.335 -1.297,1.378 -2.184,2.511 -11.296,14.421 -25.635,24.334 -43.39,29.07 -6.27,1.672 -12.569,3.447 -18.972,4.343 -7.376,1.031 -14.89,1.649 -22.327,1.503 -6.705,-0.13 -13.412,-1.366 -20.072,-2.407 -23.522,-3.677 -47.053,-7.402 -65.516,-24.59 -0.168,-0.157 -0.463,-0.176 -0.907,-0.336 -1.166,1.515 -2.439,3.044 -3.574,4.667 -4.741,6.77 -11.248,11.772 -18.708,14.468 -15.157,5.479 -30.887,8.029 -47.125,5.372 -6.649,-1.087 -13.373,-1.702 -20.055,-2.599 -13.099,-1.758 -26.222,-3.371 -39.277,-5.409 -10.211,-1.593 -17.617,-7.822 -23.583,-15.875 -3.465,-4.675 -6.667,-9.544 -10.103,-14.493 -15.89,18.765 -35.331,30.539 -59.15,34.842 -2.451,0.443 -4.85,1.176 -7.268,1.793 -15.042,3.839 -30.297,3.663 -45.4,1.202 -15.943,-2.597 -31.866,-5.737 -46.539,-14.12 -4.897,14.271 -13.255,25.812 -21.895,37.138 -2.48,3.25 -2.981,6.421 -2.68,10.388 0.467,6.176 0.992,12.583 -0.118,18.596 -2.485,13.48 -5.44,26.928 -9.25,40.087 -1.975,6.827 -5.917,13.156 -9.461,19.434 -2.442,4.328 -5.817,8.121 -8.615,12.261 -11.989,17.742 -29.3,29.069 -47.527,39.18 -4.083,2.264 -8.808,3.463 -13.34,4.806 -5.021,1.487 -10.103,2.963 -15.264,3.721 -4.642,0.683 -7.504,2.978 -10.122,6.698 -11.392,16.19 -27.586,26.56 -44.652,35.671 -3.906,2.084 -8.395,3.207 -12.73,4.331 -8.212,2.13 -16.491,4.02 -24.776,5.861 -9.357,2.079 -18.782,2.821 -28.246,0.642 -10.214,-2.353 -20.554,-4.29 -30.583,-7.27 -6.863,-2.039 -13.666,-4.924 -19.788,-8.606 -4.819,-2.898 -8.846,-3.852 -13.468,-1.076 -0.921,9.412 -1.187,18.699 -2.857,27.726 -2.767,14.963 -5.94,29.892 -9.83,44.6 -8.216,31.052 -19.29,60.973 -38.216,87.36 -7.504,10.463 -17.424,17.513 -30.241,20.395 -18.604,4.182 -18.5,3.969 -37.326,-0.016 -11.919,-2.523 -21.381,-9.113 -28.787,-17.752 -18.241,-21.281 -34.656,-43.963 -46.491,-69.613 -0.679,-1.47 -1.678,-2.792 -2.219,-3.676 -11.247,4.433 -21.647,9.557 -32.62,12.658 -29.557,8.354 -59.336,15.701 -90.24,17.598 -43.245,2.655 -85.851,-0.798 -127.844,-11.51 -1.91,-0.487 -3.884,-1.131 -5.53,-2.173 -14.602,-9.238 -26.165,-20.734 -28.73,-38.925 -0.486,-3.444 -1.8,-6.765 -2.389,-10.202 -0.413,-2.408 -0.751,-5.028 -0.243,-7.362 2.016,-9.267 3.44,-18.812 6.762,-27.621 23.412,-62.083 58.011,-116.027 113.985,-154.09 11.184,-7.604 22.495,-15.003 35.828,-18.331 11.138,-2.782 22.329,-5.37 33.543,-7.834 19.38,-4.259 39.191,-4.405 58.858,-5.905 2.619,-0.2 5.234,-0.445 7.464,-0.635 -1.051,-10.722 -3.05,-20.633 -2.696,-30.458 0.351,-9.762 3.067,-19.438 4.83,-29.641 -0.929,1.029 -1.674,1.682 -2.212,2.475 -9.15,13.454 -21.625,21.806 -37.69,24.728 -2.452,0.447 -4.885,1.05 -7.285,1.73 -10.061,2.852 -20.291,2.6 -30.515,1.494 -16.387,-1.775 -32.807,-3.386 -49.108,-5.787 -12.512,-1.842 -25.386,-3.405 -35.269,-12.751 -3.245,-3.069 -6.615,-6.09 -9.375,-9.57 -4.087,-5.154 -7.68,-10.697 -11.659,-16.324 -3.496,5.049 -6.752,9.755 -10.009,14.461 -8.459,12.222 -19.538,20.442 -34.5,22.953 -4.422,0.742 -8.709,2.436 -13.143,2.93 -5.909,0.658 -12.132,1.725 -17.809,0.58 -15.024,-3.032 -30.809,-4.077 -43.115,-13.77 -7.506,4.631 -14.035,10.225 -21.599,12.96 -11.198,4.048 -22.996,7.633 -34.774,8.622 -23.906,2.008 -48.054,2.249 -71.701,-2.792 -17.442,-3.718 -35.743,-5.641 -50.182,-17.997 -0.332,-0.284 -0.924,-0.264 -1.557,-0.428 -1.152,0.78 -2.501,1.491 -3.611,2.473 -15.079,13.337 -34.135,17.032 -52.821,18.744 -29.395,2.693 -58.811,1.14 -87.783,-6.499 -13.326,-3.514 -25.662,-8.043 -36.147,-17.016 -3.381,-2.894 -6.523,-6.064 -10.363,-9.657 -1.046,1.321 -1.971,2.82 -3.205,3.995 -9.28,8.835 -19.086,17.517 -31.199,21.609 -13.153,4.445 -26.994,7.146 -40.722,9.522 -14.111,2.443 -27.727,-1.975 -41.357,-5.116 -20.414,-4.705 -36.019,-16.541 -48.821,-32.588 -2.437,-3.053 -4.673,-6.266 -7.132,-9.579 -4.996,5.563 -9.005,11.042 -13.997,15.39 -12.957,11.283 -27.25,20.261 -44.722,22.954 -3.44,0.529 -6.754,1.927 -10.198,2.39 -9.124,1.227 -18.446,3.759 -27.403,2.872 -17.088,-1.693 -33.942,-5.628 -50.959,-8.208 -15.883,-2.408 -29.341,-9.681 -41.284,-19.901 -9.022,-7.721 -16.569,-17.042 -20.107,-28.42 -4.968,-15.982 -8.265,-32.472 -9.108,-49.251 -1.467,-29.201 -2.75,-58.417 -3.677,-87.641 -0.675,-21.264 -0.137,-42.497 6.538,-63.04 1,-3.077 1.669,-6.372 3.249,-9.133 9.697,-16.942 23.44,-29.006 42.619,-34.128 7.474,-1.995 15.012,-3.765 22.556,-5.485 6.427,-1.465 12.907,-1.433 19.314,0.188 8.946,2.265 17.846,4.717 26.816,6.881 1.768,0.426 3.841,0.229 5.639,-0.221 10.146,-2.542 20.224,-5.363 30.394,-7.804 2.065,-0.496 4.467,-0.005 6.637,0.425 16.44,3.251 32.952,6.365 46.144,17.977 0.15,0.131 0.478,0.058 0.926,0.098 6.232,-4.274 12.164,-9.577 19.076,-12.739 6.921,-3.167 14.819,-4.196 22.289,-6.16 0.241,-0.063 0.493,-0.087 0.734,-0.152 11.089,-2.965 22.14,-3.283 33.239,0.106 4.049,1.236 8.296,1.817 12.362,3.01 3.091,0.909 6.802,1.547 8.898,3.644 6.059,6.064 12.603,5.609 19.856,3.279 4.028,-1.293 8.194,-2.476 12.38,-2.892 7.403,-0.739 15.179,-2.363 22.244,-0.912 14.472,2.968 30.018,3.557 41.476,14.424 4.657,-2.514 8.595,-5.358 12.99,-6.887 17.485,-6.087 35.416,-10.579 53.861,-12.467 25.661,-2.627 50.845,0.864 75.778,6.782 12.106,2.874 24.762,4.389 33.506,14.198 5.613,-3.138 10.318,-6.687 15.616,-8.565 17.449,-6.184 35.418,-10.507 53.862,-12.443 22.602,-2.374 44.927,0.176 67.012,4.872 16.282,3.461 33.136,5.793 45.755,18.473 0.3,0.301 0.923,0.28 0.77,0.239 7.3,-4.213 13.783,-9.433 21.183,-11.886 11.783,-3.905 24.127,-6.214 36.339,-8.682 4.834,-0.976 10.046,-1.322 14.914,-0.669 22.978,3.084 46.081,5.977 66.123,18.948 30.198,-23.425 63.439,-29.567 100.093,-18.682 36.763,10.918 60.348,34.783 71.448,70.586 10.33,-8.638 20.826,-17.414 31.099,-26.005 0.924,-7.905 1.404,-15.912 2.891,-23.728 1.863,-9.799 4.521,-19.45 6.894,-29.15 2.64,-10.789 7.349,-20.639 13.337,-29.974 12.427,-19.374 27.468,-36.009 46.978,-48.701 12.512,-8.139 25.333,-14.91 40.025,-17.958 7.329,-1.521 14.54,-3.602 21.85,-5.215 10.536,-2.322 21.215,-3.99 31.967,-2.143 11.545,1.985 23.062,4.268 34.439,7.045 5.1,1.245 8.994,0.708 13.107,-2.576 13.125,-10.476 28.157,-16.942 44.554,-20.392 6.35,-1.336 12.62,-3.042 18.966,-4.403 10.543,-2.262 21.228,-4.158 31.963,-2.182 14.218,2.618 28.35,5.74 42.451,8.945 10.079,2.292 19.159,6.986 27.945,12.394 21.899,13.475 39.638,31.011 53.148,52.927 5.816,9.435 10.628,19.219 13.216,30.025 2.095,8.74 4.825,17.398 6.04,26.263 1.423,10.394 5.049,18.52 14.294,24.503 5.294,3.425 9.096,9.177 13.507,13.939 1.469,1.587 2.744,3.352 4.14,5.073 14.629,-15.468 28.338,-22.407 45.128,-25.458 2.207,-0.402 4.373,-1.026 6.564,-1.521 41.418,-9.371 79.244,-0.873 113.896,23.059 4.462,3.081 8.522,6.741 12.99,10.309 2.437,-3.237 4.683,-6.216 6.922,-9.199 6.87,-9.153 15.256,-16.834 25.702,-21.294 11.951,-5.104 24.742,-8.48 37.773,-8.596 26.121,-0.234 49.666,7.526 69.372,25.319 C -4.623,-4.437 -2.673,-2.523 0,0 m -1691.111,274.274 c 5.382,3.852 10.517,7.373 15.485,11.118 7.1,5.352 14.958,8.938 23.609,10.922 11.193,2.567 22.375,5.188 33.538,7.885 13.14,3.175 26.253,2.922 39.355,-0.116 10.943,-2.539 21.852,-5.227 32.806,-7.718 9.629,-2.191 18.555,-5.834 26.405,-11.934 1.172,-0.91 2.526,-1.583 4.098,-2.551 12.327,9.569 27.7,10.55 42.038,14.578 28.478,7.998 57.568,9.726 86.923,7.993 6.426,-0.38 12.881,-1.593 19.143,-3.147 14.025,-3.483 27.922,-7.482 41.915,-11.099 1.757,-0.455 3.842,-0.153 5.67,0.262 16.31,3.703 32.495,8.038 48.912,11.159 22.976,4.368 46.401,5.047 69.464,2.187 16.976,-2.105 33.514,-7.735 50.247,-11.793 7.204,-5.958 14.815,-3.311 22.641,-1.457 38.49,9.119 30.861,7.886 66.087,-10e-4 2.436,-0.545 4.84,-1.256 7.295,-1.688 8.542,-1.504 16.227,-4.788 22.868,-10.463 1.686,-1.441 3.666,-2.539 5.869,-4.037 8.401,7.534 17.887,12.794 31.285,13.64 -3.444,2.654 -5.443,4.303 -7.549,5.803 -17.519,12.473 -35.602,24.424 -49.48,41.087 -12.458,14.957 -24.081,30.637 -35.582,46.357 -16.919,23.128 -30.476,48.248 -39.686,75.336 -5.604,16.483 -8.874,33.766 -12.985,50.74 -0.492,2.032 0.085,4.436 0.574,6.575 2.622,11.438 5.202,22.891 8.179,34.238 0.923,3.517 3.021,6.729 4.628,10.059 0.32,0.666 0.91,1.197 1.276,1.848 8.584,15.26 21.671,25.893 36.132,35.092 1.874,1.192 3.874,2.495 5.986,2.95 20,4.31 39.886,9.463 60.091,12.433 49.681,7.302 99.137,6.058 148.004,-6.812 14.222,-3.745 28.599,-6.897 43.292,-10.413 1.204,1.558 2.434,3.059 3.566,4.631 8.764,12.168 17.699,24.219 26.205,36.565 8.131,11.801 19.332,20.016 30.743,28.198 5.405,3.874 11.007,6.532 17.509,7.871 9.532,1.963 18.977,4.361 28.412,6.76 4.697,1.193 9.222,1.329 13.972,0.118 10.4,-2.65 20.95,-4.728 31.303,-7.538 4.217,-1.145 8.235,-3.314 12.083,-5.482 20.142,-11.352 33.269,-29.192 43.609,-49.11 6.657,-12.823 12.131,-26.298 17.562,-39.712 8.569,-21.163 12.366,-43.68 17.843,-65.715 0.416,-1.672 0.953,-3.314 1.637,-5.669 8.852,2.012 17.569,3.736 26.143,6.004 12.637,3.343 25.111,3.23 37.755,-0.051 12.802,-3.323 25.722,-6.205 38.62,-9.151 8.64,-1.974 16.64,-5.397 23.871,-10.452 9.42,-6.587 18.783,-13.267 27.942,-20.212 3.754,-2.846 7.497,-6.069 10.189,-9.869 3.496,-4.938 7.946,-6.967 13.619,-8 13.748,-2.506 26.133,-8.254 37.182,-16.838 0.197,-0.153 0.4,-0.299 0.603,-0.446 33.977,-24.436 27.793,-18.3 55.563,-57.751 4.248,-6.035 7.876,-13.01 9.778,-20.091 4.98,-18.549 8.91,-37.383 13.095,-56.14 0.7,-3.134 0.701,-6.448 0.81,-9.687 0.178,-5.319 0.104,-5.322 4.401,-10.559 5.899,1.291 12.177,2.63 18.438,4.043 19.289,4.354 38.551,5.087 57.86,0 7.239,-1.907 14.584,-3.41 21.889,-5.061 13.494,-3.049 26.48,-7.328 37.616,-15.712 15.426,12.914 34.279,14.945 52.654,17.794 16.77,2.601 33.732,3.955 50.599,5.949 9.313,1.101 18.438,0.258 27.49,-2.037 6.775,-1.718 13.659,-3.046 20.355,-5.021 6.612,-1.95 13.048,-4.495 20.935,-7.261 25.771,7.851 53.704,14.371 82.417,16.672 7.34,0.588 14.965,-0.583 22.281,-1.924 10.547,-1.934 20.918,-4.814 31.385,-7.194 10.616,-2.416 20.418,-6.544 29.061,-13.27 1.164,-0.905 2.515,-1.571 4.324,-2.684 12.115,10.739 27.694,13.073 42.781,16.211 17.088,3.555 34.331,6.623 51.65,8.694 7.738,0.925 15.929,-0.547 23.737,-1.924 10.313,-1.818 20.441,-4.662 30.669,-6.974 11.137,-2.518 21.28,-7.082 30.275,-14.175 2.131,-1.682 4.464,-3.109 6.985,-4.846 18.027,14.832 40.694,15.573 61.883,20.572 5.107,1.206 10.98,0.196 16.311,-0.806 10.052,-1.888 19.948,-4.587 29.947,-6.772 2.365,-0.517 5.089,-1.025 7.299,-0.366 23.641,7.048 48.068,8.949 72.42,11.301 9.168,0.887 18.577,2.847 27.522,1.654 14.283,-1.906 28.353,-5.715 42.33,-9.412 4.394,-1.162 8.198,-4.552 12.601,-7.113 19.817,13.14 43.309,15.264 65.838,20.331 8.572,1.929 17.421,0.692 26.024,-1.38 9.95,-2.396 19.923,-4.703 29.885,-7.052 8.363,-1.973 15.724,-5.926 23.093,-10.345 20.154,-12.085 33.875,-30.019 46.448,-49.129 1.363,-2.071 2.748,-4.31 3.348,-6.669 3.138,-12.338 6.149,-24.711 8.889,-37.141 0.505,-2.293 -0.198,-4.958 -0.749,-7.358 -2.522,-10.948 -5.316,-21.836 -7.689,-32.815 -0.47,-2.178 0.116,-4.779 0.837,-6.983 2.084,-6.376 4.988,-12.519 6.649,-18.99 2.973,-11.597 5.716,-23.291 7.723,-35.085 1.811,-10.636 1.701,-21.393 -1.602,-31.921 -1.192,-3.8 -2.245,-7.729 -2.657,-11.674 -2.243,-21.505 -14.507,-37.912 -27.166,-54.146 -0.766,-0.983 -1.565,-1.977 -2.501,-2.788 -20.706,-17.945 -42.097,-34.648 -70.049,-39.95 -7.352,-1.395 -14.641,-3.194 -21.864,-5.158 -10.109,-2.748 -20.154,-3.092 -30.359,-0.582 -13.332,3.28 -26.727,6.297 -40.067,9.544 -10.525,2.563 -20.321,6.841 -29.349,13.494 -1.807,-1.126 -3.536,-2.024 -5.067,-3.185 -9.32,-7.066 -19.691,-11.658 -31.174,-13.959 -7.828,-1.569 -15.579,-3.535 -23.333,-5.458 -12.126,-3.008 -24.218,-3.026 -36.35,-0.041 -7.998,1.968 -16.019,3.85 -24.056,5.653 -9.555,2.144 -18.879,4.778 -26.293,11.627 -15.352,-11.114 -33.494,-12.097 -50.616,-16.008 -5.34,-1.219 -11.451,-0.037 -17.032,0.999 -9.809,1.822 -19.536,4.168 -29.188,6.71 -5.009,1.319 -9.782,3.527 -15.304,5.571 -14.859,-8.461 -32.52,-9.975 -49.388,-14.197 -2.755,-0.689 -5.97,-0.277 -8.826,0.321 -8.305,1.737 -16.558,3.743 -24.787,5.814 -4.467,1.124 -8.813,1.164 -13.273,0.004 -6.763,-1.76 -13.607,-3.212 -20.366,-4.986 -7.683,-2.019 -15.309,-1.987 -22.959,0.043 -13.979,3.706 -27.941,7.48 -41.96,11.032 -1.725,0.436 -3.941,0.126 -5.611,-0.584 -14.839,-6.315 -30.807,-8.254 -46.287,-12.053 -1.828,-0.449 -3.97,0.08 -5.91,0.45 -3.923,0.748 -7.97,1.261 -11.678,2.643 -14.19,5.288 -28.181,4.66 -42.347,-0.162 -11.195,-3.813 -22.53,-3.472 -33.9,-0.162 -7.185,2.091 -14.51,3.713 -21.815,5.362 -8.348,1.886 -16.391,4.44 -23.023,9.528 -0.914,-0.075 -1.541,0.068 -1.879,-0.181 -14.006,-10.323 -31.053,-11.786 -47.07,-16.289 -15.836,-4.452 -31.547,-4.337 -47.297,0.289 -3.349,0.983 -6.755,1.86 -10.194,2.431 -15.322,2.542 -29.38,7.842 -41.153,18.325 -0.553,0.492 -1.209,0.888 -1.864,1.243 -0.424,0.228 -0.936,0.297 -2.128,0.652 -54.26,-29.492 -110.425,-30.765 -168.365,-6.731 -2.155,-8.721 -4.614,-16.964 -6.183,-25.372 -3.511,-18.839 -11.338,-35.58 -23.056,-50.651 -4.448,-5.719 -8.473,-11.764 -12.806,-17.574 -13.174,-17.662 -50.145,-45.513 -71.261,-52.056 -21.674,-6.715 -43.762,-12.121 -66.32,-15.247 -10.588,-1.467 -20.97,0.04 -31.231,2.324 -13.644,3.039 -27.176,6.574 -40.8,9.7 -11.586,2.658 -22.382,7.151 -32.132,13.869 -3.875,2.67 -7.281,3.086 -11.819,1.912 -8.435,-2.181 -17.071,-3.638 -25.675,-5.097 -10.777,-1.827 -21.46,-0.41 -31.983,1.943 -13.885,3.101 -27.666,6.665 -41.535,9.837 -13.357,3.053 -25.446,8.768 -36.559,16.679 -1.425,1.015 -2.775,2.155 -4.275,3.043 -25.847,15.319 -44.276,37.745 -60.395,62.499 -7.895,12.125 -13.025,25.239 -16.007,39.308 -1.075,5.073 -2.386,10.097 -3.766,15.889 -1.849,-1.318 -3.194,-2.244 -4.503,-3.218 -1.402,-1.045 -2.74,-2.177 -4.157,-3.2 -38.548,-27.855 -26.512,-20.998 -74.15,-33.038 -15.186,-3.836 -30.055,-3.899 -45.127,0.198 -9.872,2.684 -19.957,4.589 -29.818,7.307 -5.235,1.444 -10.329,3.605 -15.224,5.985 -2.436,1.184 -4.441,1.585 -7.057,0.937 -12.841,-3.178 -25.74,-6.124 -38.598,-9.238 -16.328,-3.954 -32.563,-4.262 -48.898,0.229 -13.466,3.703 -27.059,6.956 -40.643,10.214 -1.755,0.421 -3.831,-0.136 -5.687,-0.556 -17.529,-3.964 -34.964,-8.397 -52.58,-11.923 -31.364,-6.279 -62.566,-5.507 -93.469,3.379 -10.068,2.894 -20.294,5.261 -30.501,7.638 -2.05,0.478 -4.416,0.233 -6.514,-0.231 -16.087,-3.556 -32.071,-7.61 -48.224,-10.818 -31.119,-6.18 -62.074,-5.498 -92.741,3.266 -9.114,2.604 -18.36,4.795 -27.631,6.777 -3.049,0.652 -6.477,0.567 -9.543,-0.079 -9.279,-1.951 -18.506,-4.188 -27.678,-6.598 -11.869,-3.119 -23.682,-3.476 -35.509,-0.015 -6.279,1.838 -12.051,2.152 -18.763,-0.04 -12.532,-4.093 -25.674,-6.304 -38.529,-9.436 -7.285,-1.775 -14.433,-0.777 -21.524,0.797 -12.428,2.757 -24.805,5.748 -37.201,8.653 -0.729,0.171 -1.522,0.293 -2.139,0.674 -6.316,3.896 -12.59,2.334 -19.196,0.546 -11.078,-2.999 -22.301,-5.5 -33.549,-7.791 -3.541,-0.72 -7.46,-0.64 -11.024,0.032 -8.087,1.527 -16.095,3.517 -24.067,5.583 -4.71,1.22 -9.235,1.35 -13.96,0.057 -6.738,-1.842 -13.594,-3.252 -20.363,-4.987 -7.429,-1.903 -14.806,-1.87 -22.244,-0.059 -11.886,2.894 -23.799,5.673 -35.697,8.516 -8.104,1.936 -15.701,4.978 -22.242,10.297 -0.582,0.473 -1.166,0.965 -1.817,1.324 -15.399,8.485 -25.767,21.873 -34.947,36.295 -2.364,3.717 -4.146,8.005 -5.265,12.274 -3.166,12.071 -6.006,24.235 -8.647,36.433 -1.05,4.85 -1.621,9.873 -1.767,14.836 -1.169,39.77 0.269,79.472 3.468,119.117 1.756,21.778 7.727,42.712 12.965,63.781 0.765,3.079 2.327,6.115 4.136,8.747 5.234,7.619 10.678,15.103 16.265,22.469 1.938,2.556 4.49,4.661 6.85,6.878 1.086,1.02 2.369,1.836 3.589,2.709 32.469,23.243 20.977,17.721 68.654,28.983 15.259,3.606 30.95,5.673 46.559,7.388 7.04,0.774 14.481,-0.438 21.532,-1.813 12.735,-2.483 25.312,-5.767 37.957,-8.713 10.355,-2.413 19.868,-6.62 28.31,-13.16 1.773,-1.374 3.681,-2.573 6.26,-4.361" /></g></g></g><g
       id="g24"><g
         clip-path="url(#clipPath30)"
         id="g26"><g
           transform="translate(1867.2549,584.9941)"
           id="g32"><path
             id="path34"
             style="fill:#9a1c6f;fill-opacity:1;fill-rule:evenodd;stroke:none"
             d="M 0,0 C 41.42,17.147 67.505,70.379 49.464,117.392 33.522,90.278 10.83,72.429 -19.272,65.037 c 0.782,-7.542 2.094,-14.439 2.041,-21.326 -0.051,-6.53 1.48,-11.886 5.196,-17.35 C -8.3,20.866 -6.025,14.366 -3.229,8.252 -2.003,5.573 -1.069,2.761 0,0 m -19.268,19.726 c -1.204,-2.384 -1.804,-3.192 -2.041,-4.095 -5.644,-21.621 -16.871,-39.579 -34.089,-54.02 -19.34,-16.217 -41.888,-23.725 -66.572,-24.907 -8.534,-0.408 -17.315,1.399 -25.756,3.235 -4.295,0.935 -6.273,-0.071 -8.691,-3.248 -5.412,-7.112 -11.187,-13.954 -16.937,-20.802 -3.294,-3.924 -3.489,-4.395 -0.035,-8.102 21.671,-23.261 47.932,-34.357 80.094,-31.405 15.02,1.379 28.596,5.977 41.388,13.563 18.96,11.244 31.595,27.664 39.625,47.975 6.815,17.237 7.461,34.948 4.154,52.891 -1.8,9.774 -5.242,19.049 -11.14,28.915 m -352.216,196.086 c 36.801,21.102 73.554,20.87 110.327,1.787 21.293,31.635 11.678,70.639 -12.702,90.087 -29.858,23.816 -67.372,19.667 -92.147,-5.358 -22.907,-23.139 -25.081,-62.318 -5.478,-86.516 M -30.055,62.442 c -5.081,0 -9.801,0.093 -14.518,-0.015 -16.544,-0.381 -32.002,3.835 -46.775,10.953 -6.67,3.214 -6.824,3.435 -11.955,-2.098 -10.699,-11.539 -23.355,-20.104 -37.949,-25.873 -2.927,-1.157 -5.891,-2.222 -9.146,-3.445 5.727,-14.944 10.057,-29.559 10.612,-45.258 0.557,-15.733 -3.549,-30.458 -8.085,-44.999 18.412,-9.443 56.625,-6.284 82.799,14.458 31.063,24.615 43.636,60.641 35.017,96.277 m -208.227,194.444 c 34.976,-0.765 68.442,25.565 69.242,66.863 0.774,39.974 -31.808,69.775 -70.29,68.576 -39.394,-1.227 -65.555,-36.979 -63.507,-60.144 39.34,-10.132 58.946,-35.125 64.555,-75.295 m -8.383,-196.598 c -0.363,0.793 -0.406,1.085 -0.574,1.227 -22.274,18.68 -34.862,42.804 -38.031,71.375 -2.686,24.232 3.043,47.039 15.872,67.927 1.372,2.235 2.533,4.598 3.754,6.833 -38.63,25.196 -97.986,16.575 -128.029,-26.531 -31.556,-45.278 -18.487,-104.813 24.875,-134.478 42.979,-29.402 97.87,-16.105 122.133,13.647 M -337.461,21.53 c -1.174,-5.748 -2.894,-11.258 -3.339,-16.869 -1.678,-21.13 2.072,-41.211 12.947,-59.659 10.459,-17.742 25.31,-30.499 44.172,-38.673 15.568,-6.745 31.676,-10.023 48.611,-7.184 7.308,1.225 14.714,2.433 21.733,4.708 15.77,5.109 28.765,14.602 39.844,26.881 9.339,10.351 15.85,22.288 19.877,35.501 4.326,14.19 6.292,28.787 2.905,43.427 -2.065,8.923 -5.415,17.557 -8.33,26.273 -1.121,3.35 -3.324,3.703 -7.003,3.418 -9.409,-0.727 -19.053,-1.407 -28.329,-0.123 -13.557,1.878 -26.834,5.607 -38.575,13.26 -2.769,1.804 -5.163,1.253 -7.368,-1.016 -1.392,-1.434 -2.799,-2.855 -4.264,-4.214 -10.972,-10.186 -23.791,-17.439 -37.937,-21.864 -16.562,-5.182 -33.595,-6.899 -50.878,-3.534 -1.133,0.221 -2.387,-0.177 -4.066,-0.332 m 252.993,121.92 c 1.8,51.607 -43.365,96.031 -93.885,96.41 -53.733,0.404 -97.805,-41.516 -97.744,-95.011 0.063,-54.545 41.202,-96.25 95.341,-96.732 53.982,-0.48 96.305,42.247 96.288,95.333 m -32.161,259.417 c -1.319,0.584 -2.639,1.168 -3.958,1.752 -0.371,0.323 -0.694,0.832 -1.122,0.943 -13.479,3.513 -26.73,2.195 -39.507,-2.809 -9.736,-3.812 -18.755,-9.003 -25.845,-18.096 14.926,-13.441 24.242,-29.777 27.144,-49.071 2.895,-19.257 -1.635,-37.476 -11.663,-54.392 9.25,-5.182 17.87,-8.933 28.422,-8.078 0,3.116 0.121,5.342 -0.022,7.55 -0.569,8.809 0.749,17.378 3.179,25.803 4.543,15.75 13.215,29.107 25.384,39.779 9.971,8.745 21.496,15.319 34.781,18.185 1.54,0.333 2.881,1.591 4.257,2.386 -0.224,1.216 -0.192,2.02 -0.513,2.641 -6.451,12.501 -15.502,22.575 -28.059,29.14 -3.884,2.03 -7.544,5.137 -12.478,4.267 m 127.776,-157.468 0.24,-0.228 c -1.033,0.584 -2.067,1.168 -3.1,1.751 l -0.023,-0.19 c -2.097,1.949 -3.887,4.49 -6.337,5.754 -26.258,13.552 -53.392,15.169 -80.951,4.625 -13.171,-5.04 -24.859,-12.737 -34.447,-23.294 -3.371,-3.711 -3.511,-5.215 0.168,-7.927 7.949,-5.86 14.114,-13.208 19.74,-21.252 12.073,-17.257 18.278,-36.6 19.377,-57.288 0.965,-18.153 -3.463,-35.563 -11.726,-51.876 -1.664,-3.287 -3.2,-6.639 -5.012,-10.41 1.002,-0.649 1.59,-1.111 2.242,-1.442 16.708,-8.504 34.039,-12.812 53.131,-10.84 14.974,1.547 28.628,5.784 41.504,13.314 19.296,11.285 32.22,27.782 40.26,48.395 6.72,17.226 7.732,35.005 4.128,52.913 -3.671,18.24 -11.831,34.332 -25.544,47.292 -2.004,1.894 -3.82,4.081 -7.047,3.381 l -0.344,0.276 0.082,0.434 c -0.724,1.117 -1.45,2.235 -2.175,3.352 l 0.202,-0.275 c -0.888,0.714 -1.776,1.428 -2.663,2.141 l 0.135,-0.088 c -0.613,0.494 -1.226,0.988 -1.84,1.482 M -6.382,335.69 c -0.949,0.568 -1.898,1.136 -2.848,1.705 -1.668,6.152 -7.424,7.924 -12.035,10.452 -17.689,9.695 -36.352,13.158 -56.178,7.354 -11.898,-3.484 -22.552,-8.778 -31.649,-17.619 -8.748,-8.503 -15.73,-17.907 -19.668,-29.392 -4.32,-12.603 -6.686,-25.508 -3.56,-38.813 2.32,-9.878 4.854,-19.711 11.757,-28.231 1.477,1.208 2.698,2.017 3.688,3.045 8.422,8.75 18.234,15.588 29.413,20.176 20.889,8.572 42.312,12.471 64.864,7.007 10.501,-2.545 20.564,-5.894 30.126,-10.925 4.464,-2.349 5.885,-1.844 6.998,2.91 1.411,6.017 2.612,12.212 2.783,18.361 0.343,12.423 -2.918,24.245 -8.65,35.182 -3.405,6.497 -6.767,13.32 -13.555,17.297 -0.495,0.497 -0.991,0.994 -1.486,1.491 m -324.233,-3.096 c 5.227,0.236 10.456,0.472 16.452,0.744 4.415,27.293 17.938,48.607 43.183,60.841 25.198,12.211 50.296,10.312 75.256,-3.335 19.594,20.641 43.708,29.976 72.203,25.029 28.34,-4.921 47.494,-21.948 59.137,-48.123 30.448,0.691 55.996,-9.611 74.346,-34.438 18.31,-24.775 21.033,-52.198 11.629,-80.586 6.352,-6.82 12.893,-12.719 18.099,-19.625 21.915,-29.082 27.873,-61.286 17.447,-96.311 -1.104,-3.705 -1.244,-6.939 0.251,-10.753 C 78.65,71.835 53.789,14.947 5.515,-8.692 4.628,-9.126 3.773,-9.624 2.932,-10.077 c 4.261,-53.901 -15.127,-95.474 -66.479,-116.061 -47.39,-18.998 -88.483,-4.857 -122.336,32.382 -40.437,-23.684 -81.43,-25.581 -120.273,1.97 -40.266,28.562 -51.775,69.012 -40.929,116.843 -38.922,14.471 -64.569,41.203 -71.832,82.725 -7.197,41.141 6.989,75.11 38.804,102.322 -5.629,8.663 -9.709,17.826 -12.326,27.83 -9.151,34.986 10.233,76.993 49.301,90.787 1.771,0.625 3.401,1.643 5.096,2.478 0,0 -0.094,-0.152 -0.094,-0.153 2.562,0.528 5.124,1.057 7.685,1.585 z" /></g></g></g><g
       id="g36"><g
         id="g38"><g
           id="g44"><g
             id="g46"><path
               id="path58"
               style="fill:url(#linearGradient56);stroke:none"
               d="m 1591.158,729.843 c 0.063,-54.545 41.203,-96.25 95.341,-96.732 v 0 c 53.981,-0.48 96.304,42.248 96.288,95.334 v 0 c 1.8,51.605 -43.365,96.03 -93.885,96.409 v 0 c -0.259,0.002 -0.51,0.003 -0.768,0.003 v 0 c -53.382,-0.004 -97.037,-41.777 -96.976,-95.014 m 131.061,39.443 c -12.172,0.078 -21.994,9.462 -21.921,20.943 v 0 c 0.073,11.451 10.076,20.717 22.253,20.613 v 0 c 12.081,-0.103 22.263,-9.735 22.14,-20.945 v 0 c -0.124,-11.222 -10.312,-20.611 -22.325,-20.611 v 0 c -0.049,0 -0.098,0 -0.147,0" /></g></g></g></g><g
       id="g60"><g
         id="g62"><g
           id="g68"><g
             id="g70"><path
               id="path82"
               style="fill:url(#linearGradient80);stroke:none"
               d="m 1626.938,636.467 c -1.39,-1.433 -2.798,-2.853 -4.263,-4.213 v 0 c -10.973,-10.186 -23.791,-17.439 -37.937,-21.864 v 0 c -16.562,-5.182 -33.595,-6.899 -50.878,-3.534 v 0 c -1.133,0.221 -2.387,-0.177 -4.066,-0.332 v 0 c -1.175,-5.748 -2.894,-11.257 -3.34,-16.869 v 0 c -1.677,-21.13 2.073,-41.211 12.948,-59.659 v 0 c 10.459,-17.742 25.31,-30.499 44.172,-38.673 v 0 c 15.568,-6.745 31.675,-10.023 48.61,-7.184 v 0 c 7.309,1.226 14.715,2.433 21.734,4.708 v 0 c 15.769,5.109 28.765,14.602 39.844,26.881 v 0 c 9.339,10.351 15.85,22.289 19.878,35.501 v 0 c 4.325,14.19 6.29,28.787 2.904,43.428 v 0 c -2.065,8.922 -5.415,17.556 -8.33,26.272 v 0 c -1.121,3.35 -3.324,3.703 -7.004,3.418 v 0 c -9.408,-0.727 -19.052,-1.406 -28.328,-0.123 v 0 c -13.557,1.878 -26.835,5.607 -38.575,13.261 v 0 c -1.122,0.73 -2.183,1.075 -3.194,1.075 v 0 c -1.485,-10e-4 -2.863,-0.742 -4.175,-2.093" /></g></g></g></g><g
       id="g84"><g
         id="g86"><g
           id="g92"><g
             id="g94"><path
               id="path106"
               style="fill:url(#linearGradient104);stroke:none"
               d="m 1788.231,842.105 c -13.171,-5.039 -24.859,-12.737 -34.447,-23.294 v 0 c -3.371,-3.711 -3.512,-5.215 0.168,-7.927 v 0 c 7.948,-5.86 14.113,-13.208 19.74,-21.253 v 0 c 12.072,-17.256 18.277,-36.599 19.377,-57.288 v 0 c 0.965,-18.152 -3.464,-35.562 -11.727,-51.876 v 0 c -1.663,-3.286 -3.199,-6.638 -5.011,-10.408 v 0 c 1.002,-0.65 1.59,-1.112 2.242,-1.443 v 0 c 16.708,-8.504 34.039,-12.812 53.131,-10.84 v 0 c 14.973,1.547 28.628,5.784 41.504,13.314 v 0 c 19.296,11.285 32.219,27.782 40.259,48.396 v 0 c 6.721,17.225 7.733,35.005 4.129,52.913 v 0 c -3.671,18.239 -11.832,34.331 -25.544,47.291 v 0 c -2.004,1.895 -3.82,4.081 -7.047,3.381 v 0 c 3.658,-11.431 1.67,-18.842 -6.543,-24.382 v 0 c -8.311,-5.607 -19.491,-5.125 -27.245,1.175 v 0 c -9.336,7.589 -9.303,21.077 0.177,28.509 v 0 c 5.371,4.212 11.545,5.74 18.302,4.643 v 0 c 1.958,-0.319 3.881,-0.854 5.822,-1.289 v 0 c -2.096,1.948 -3.887,4.489 -6.337,5.753 v 0 c -14.829,7.653 -29.936,11.501 -45.242,11.5 v 0 c -11.797,0 -23.713,-2.285 -35.708,-6.875" /></g></g></g></g><g
       id="g108"><g
         id="g110"><g
           id="g116"><g
             id="g118"><path
               id="path130"
               style="fill:url(#linearGradient128);stroke:none"
               d="m 1473.582,766.113 c -31.556,-45.278 -18.487,-104.813 24.875,-134.478 v 0 c 42.979,-29.401 97.871,-16.105 122.133,13.647 v 0 c -0.364,0.793 -0.407,1.085 -0.574,1.226 v 0 c -22.274,18.682 -34.862,42.806 -38.031,71.376 v 0 c -2.686,24.232 3.043,47.039 15.871,67.928 v 0 c 1.373,2.234 2.534,4.597 3.755,6.833 v 0 c -14.34,9.353 -31.53,14.046 -49.022,14.045 v 0 c -29.63,-0.003 -60.117,-13.473 -79.007,-40.577 m 73.599,3.199 c -7.931,6.603 -8.003,16.515 -0.294,23.288 v 0 c 9.273,8.147 25.808,8.348 35.352,0.429 v 0 c 8.562,-7.105 8.461,-17.211 -0.31,-24.173 v 0 c -4.871,-3.867 -10.584,-5.367 -16.686,-5.619 v 0 c -6.681,0.113 -12.866,1.747 -18.062,6.075" /></g></g></g></g><g
       id="g132"><g
         id="g134"><g
           id="g140"><g
             id="g142"><path
               id="path154"
               style="fill:url(#linearGradient152);stroke:none"
               d="m 1627.925,977.319 c -39.393,-1.227 -65.555,-36.979 -63.508,-60.144 v 0 c 39.341,-10.132 58.947,-35.125 64.556,-75.295 v 0 c 34.976,-0.765 68.442,25.565 69.242,66.863 v 0 c 0.759,39.197 -30.549,68.614 -68.049,68.611 v 0 c -0.743,0 -1.494,-0.012 -2.241,-0.035" /></g></g></g></g><g
       id="g156"><g
         id="g158"><g
           id="g164"><g
             id="g166"><path
               id="path178"
               style="fill:url(#linearGradient176);stroke:none"
               d="m 1763.952,656.277 c -10.699,-11.539 -23.355,-20.105 -37.949,-25.874 v 0 c -2.927,-1.157 -5.891,-2.222 -9.147,-3.445 v 0 c 5.727,-14.944 10.058,-29.558 10.614,-45.258 v 0 c 0.555,-15.733 -3.551,-30.458 -8.086,-44.999 v 0 c 18.412,-9.443 56.624,-6.284 82.798,14.458 v 0 c 31.064,24.616 43.638,60.64 35.018,96.278 v 0 c -5.081,0 -9.802,0.092 -14.519,-0.016 v 0 c -16.543,-0.381 -32.002,3.835 -46.774,10.953 v 0 c -2.972,1.432 -4.649,2.27 -6.05,2.269 v 0 c -1.744,0 -3.06,-1.298 -5.905,-4.366" /></g></g></g></g><g
       id="g180"><g
         id="g182"><g
           id="g188"><g
             id="g190"><path
               id="path202"
               style="fill:url(#linearGradient200);stroke:none"
               d="m 1789.812,940.195 c -11.898,-3.484 -22.552,-8.777 -31.649,-17.619 v 0 c -8.748,-8.504 -15.731,-17.907 -19.668,-29.392 v 0 c -4.321,-12.603 -6.686,-25.508 -3.561,-38.812 v 0 c 2.321,-9.879 4.855,-19.712 11.757,-28.232 v 0 c 1.478,1.209 2.699,2.016 3.689,3.045 v 0 c 8.422,8.75 18.234,15.588 29.413,20.176 v 0 c 20.889,8.573 42.311,12.471 64.864,7.006 v 0 c 10.501,-2.544 20.564,-5.892 30.126,-10.924 v 0 c 4.464,-2.348 5.885,-1.844 6.998,2.911 v 0 c 1.41,6.016 2.611,12.211 2.782,18.361 v 0 c 0.344,12.422 -2.917,24.244 -8.649,35.181 v 0 c -3.406,6.498 -6.768,13.32 -13.553,17.3 v 0 c -0.234,-0.226 -0.473,-0.446 -0.715,-0.664 v 0 c 2.141,-4.114 2.588,-8.115 -1.206,-11.536 v 0 c -3.217,-2.902 -6.973,-3.668 -11.078,-2.059 v 0 c -3.826,1.5 -6.502,5.038 -6.142,8.491 v 0 c 0.392,3.784 2.487,6.673 6.134,7.675 v 0 c 2.536,0.698 5.35,0.388 8.041,0.528 v 0 c 0.209,0.253 0.419,0.505 0.63,0.758 v 0 c -1.668,6.153 -7.424,7.924 -12.034,10.452 v 0 c -11.833,6.485 -24.101,10.181 -36.861,10.181 v 0 c -6.316,0 -12.754,-0.905 -19.318,-2.827" /></g></g></g></g><g
       id="g204"><g
         id="g206"><g
           id="g212"><g
             id="g214"><path
               id="path226"
               style="fill:url(#linearGradient224);stroke:none"
               d="m 1501.249,887.321 c -22.907,-23.137 -25.081,-62.317 -5.479,-86.515 v 0 c 36.801,21.102 73.554,20.87 110.329,1.787 v 0 c 21.292,31.635 11.676,70.639 -12.703,90.087 v 0 c -13.488,10.759 -28.533,15.811 -43.265,15.81 v 0 c -17.881,-0.002 -35.299,-7.447 -48.882,-21.169" /></g></g></g></g><g
       id="g228"><g
         id="g230"><g
           id="g236"><g
             id="g238"><path
               id="path250"
               style="fill:url(#linearGradient248);stroke:none"
               d="m 1845.947,600.625 c -5.645,-21.621 -16.872,-39.579 -34.091,-54.019 v 0 c -19.339,-16.219 -41.887,-23.726 -66.571,-24.908 v 0 c -8.534,-0.408 -17.315,1.398 -25.756,3.236 v 0 c -4.294,0.934 -6.273,-0.071 -8.691,-3.248 v 0 c -5.412,-7.113 -11.187,-13.954 -16.937,-20.803 v 0 c -3.294,-3.924 -3.489,-4.394 -0.035,-8.101 v 0 c 21.67,-23.261 47.931,-34.358 80.094,-31.406 v 0 c 15.02,1.379 28.596,5.977 41.388,13.563 v 0 c 18.959,11.244 31.595,27.665 39.625,47.975 v 0 c 6.815,17.237 7.46,34.948 4.154,52.89 v 0 c -1.8,9.775 -5.242,19.051 -11.14,28.915 v 0 c -1.204,-2.383 -1.805,-3.191 -2.04,-4.094" /></g></g></g></g><g
       id="g252"><g
         id="g254"><g
           id="g260"><g
             id="g262"><path
               id="path274"
               style="fill:url(#linearGradient272);stroke:none"
               d="m 1706.038,987.747 c -9.735,-3.812 -18.754,-9.003 -25.843,-18.096 v 0 c 14.925,-13.44 24.241,-29.777 27.142,-49.07 v 0 c 2.896,-19.258 -1.634,-37.477 -11.662,-54.392 v 0 c 9.25,-5.183 17.87,-8.934 28.421,-8.079 v 0 c 0,3.117 0.122,5.341 -0.021,7.549 v 0 c -0.569,8.81 0.749,17.379 3.179,25.804 v 0 c 4.543,15.751 13.215,29.107 25.384,39.778 v 0 c 9.972,8.746 21.495,15.32 34.781,18.187 v 0 c 1.54,0.332 2.88,1.59 4.257,2.385 v 0 c -0.224,1.216 -0.193,2.02 -0.513,2.641 v 0 c -6.451,12.501 -15.502,22.575 -28.059,29.14 v 0 c -3.885,2.03 -7.545,5.137 -12.478,4.267 v 0 c 2.926,-5.556 2.714,-7.772 -0.97,-10.14 v 0 c -4.313,-2.772 -10.841,-1.698 -13.417,2.208 v 0 c -1.761,2.669 -1.265,5.997 1.922,7.613 v 0 c 2.536,1.284 5.65,1.423 8.508,2.07 v 0 c -0.372,0.324 -0.695,0.833 -1.123,0.945 v 0 c -5.132,1.337 -10.231,1.974 -15.283,1.974 v 0 c -8.218,0 -16.312,-1.685 -24.225,-4.784" /></g></g></g></g><g
       id="g276"><g
         clip-path="url(#clipPath282)"
         id="g278"><g
           transform="translate(1867.2549,584.9941)"
           id="g284"><path
             id="path286"
             style="fill:#e80771;fill-opacity:1;fill-rule:evenodd;stroke:none"
             d="m 0,0 c -1.069,2.761 -2.003,5.573 -3.229,8.252 -2.796,6.114 -5.071,12.614 -8.806,18.109 -3.716,5.464 -5.247,10.82 -5.196,17.35 0.053,6.887 -1.259,13.784 -2.041,21.326 30.102,7.392 52.794,25.241 68.736,52.355 C 67.505,70.379 41.42,17.147 0,0" /></g><g
           transform="translate(1884.7432,823.7812)"
           id="g288"><path
             id="path290"
             style="fill:#e80771;fill-opacity:1;fill-rule:evenodd;stroke:none"
             d="M 0,0 C -0.723,1.118 -1.445,2.236 -2.172,3.353 -1.45,2.235 -0.725,1.117 0,0" /></g><g
           transform="translate(1882.7695,826.8579)"
           id="g292"><path
             id="path294"
             style="fill:#e80771;fill-opacity:1;fill-rule:evenodd;stroke:none"
             d="M 0,0 C -0.888,0.713 -1.774,1.428 -2.663,2.141 -1.775,1.428 -0.888,0.714 0,0" /></g><g
           transform="translate(1878.6416,830.165)"
           id="g296"><path
             id="path298"
             style="fill:#e80771;fill-opacity:1;fill-rule:evenodd;stroke:none"
             d="M 0,0 C -1.033,0.584 -2.064,1.168 -3.099,1.752 -2.066,1.168 -1.033,0.584 0,0" /></g><g
           transform="translate(1858.0244,922.3887)"
           id="g300"><path
             id="path302"
             style="fill:#e80771;fill-opacity:1;fill-rule:evenodd;stroke:none"
             d="M 0,0 C 0.95,-0.568 1.899,-1.136 2.849,-1.705 2.624,-1.94 2.404,-2.18 2.188,-2.423 1.249,-1.868 0.309,-1.313 -0.63,-0.758 -0.42,-0.505 -0.21,-0.253 0,0" /></g><g
           transform="translate(1880.2422,828.9111)"
           id="g304"><path
             id="path306"
             style="fill:#e80771;fill-opacity:1;fill-rule:evenodd;stroke:none"
             d="M 0,0 C -0.612,0.494 -1.225,0.987 -1.839,1.481 -1.227,0.988 -0.613,0.494 0,0" /></g><g
           transform="translate(1860.873,920.6841)"
           id="g308"><path
             id="path310"
             style="fill:#e80771;fill-opacity:1;fill-rule:evenodd;stroke:none"
             d="M 0,0 C 0.495,-0.497 0.991,-0.994 1.487,-1.489 1.254,-1.713 1.016,-1.935 0.774,-2.152 0.296,-1.675 -0.183,-1.196 -0.661,-0.719 -0.444,-0.476 -0.225,-0.236 0,0" /></g><g
           transform="translate(1534.2046,927.6411)"
           id="g312"><path
             id="path314"
             style="fill:#91bf19;fill-opacity:1;fill-rule:evenodd;stroke:none"
             d="m 0,0 c 0,0 -20.907,38.719 -37.169,64.719 -15.606,24.953 -33.333,78 -85.333,92.666 -90.888,25.634 -157.333,13.333 -188,6 0,0 27.333,-118.384 105.333,-151.333 C -127.835,-20.615 -4.667,-6 0,0" /></g><g
           transform="translate(1534.2046,927.6411)"
           id="g316"><path
             id="path318"
             style="fill:none;stroke:#7ea617;stroke-width:11;stroke-linecap:round;stroke-linejoin:round;stroke-miterlimit:10;stroke-dasharray:none;stroke-opacity:1"
             d="m 0,0 c 0,0 -20.907,38.719 -37.169,64.719 -15.606,24.953 -33.333,78 -85.333,92.666 -90.888,25.634 -157.333,13.333 -188,6 0,0 27.333,-118.384 105.333,-151.333 C -127.835,-20.615 -4.667,-6 0,0 Z" /></g><g
           transform="translate(1528.5571,943.0264)"
           id="g320"><path
             id="path322"
             style="fill:#91bf19;fill-opacity:1;fill-rule:evenodd;stroke:none"
             d="m 0,0 c 0,0 -32.666,68.667 -36.666,102 -4,33.333 50,117.333 60,118.667 10,1.333 54,-95.334 46.666,-138 C 62.667,40 0,0 0,0" /></g><g
           transform="translate(1528.5571,943.0264)"
           id="g324"><path
             id="path326"
             style="fill:none;stroke:#7ea617;stroke-width:11;stroke-linecap:round;stroke-linejoin:round;stroke-miterlimit:10;stroke-dasharray:none;stroke-opacity:1"
             d="m 0,0 c 0,0 -32.666,68.667 -36.666,102 -4,33.333 50,117.333 60,118.667 10,1.333 54,-95.334 46.666,-138 C 62.667,40 0,0 0,0 Z" /></g><g
           transform="translate(1438.1978,1049.3989)"
           id="g328"><path
             id="path330"
             style="fill:#ffffff;fill-opacity:1;fill-rule:evenodd;stroke:none"
             d="m 0,0 c -1.321,-5.387 -21.525,-5.063 -45.126,0.727 -23.601,5.789 -41.661,14.85 -40.34,20.238 1.322,5.388 21.526,5.062 45.126,-0.727 C -16.738,14.449 1.322,5.388 0,0" /></g></g></g><g
       id="g332"><g
         clip-path="url(#clipPath338)"
         id="g334"><g
           transform="translate(2360.3691,689.585)"
           id="g340"><path
             id="path342"
             style="fill:#9a1c6f;fill-opacity:1;fill-rule:evenodd;stroke:none"
             d="m 0,0 c 6.297,0.953 10.96,3.282 16.183,7.883 9.619,8.472 10.505,17.44 2.627,27.555 -1.528,1.958 -3.338,3.699 -5.053,5.507 -2.399,2.528 -5.022,2.664 -8.111,1.104 C 2.67,40.545 -0.106,39.358 -0.053,35.19 0.099,23.488 0,11.783 0,0 m -11.609,86.433 c -14.234,-1.755 -24.371,-7.331 -31.443,-17.927 -2.127,-3.188 -3.375,-6.906 -1.219,-10.55 2.164,-3.655 6,-4.325 9.844,-3.925 12.623,1.317 22.551,7.326 29.58,17.874 2.136,3.205 3.502,7.322 0.723,10.419 -2.074,2.311 -5.73,3.202 -7.485,4.109 M 58.546,-21.186 c 6.435,-8.633 13.069,-16.5 18.475,-25.134 3.912,-6.253 6.619,-13.377 9.084,-20.387 2.464,-7.002 1.091,-13.68 -3.774,-19.63 -6.252,-7.645 -13.259,-14.25 -22.523,-18.089 -9.074,-3.76 -17.803,-2.997 -25.349,3.28 -4.944,4.111 -9.509,8.872 -13.423,13.971 -4.232,5.515 -7.505,11.765 -11.207,17.687 -0.846,1.352 -1.734,2.676 -3.531,5.44 0,-5.408 0.176,-9.061 -0.029,-12.694 -1.095,-19.489 -9.09,-26.96 -28.925,-29.616 -9.955,-1.333 -19.244,2.051 -27.843,7.003 -6.484,3.732 -8.781,10.195 -9.469,17.013 -0.926,9.169 -1.428,18.417 -1.461,27.633 -0.13,36.228 1.182,72.406 4.605,108.486 0.47,4.961 1.377,9.882 2.143,14.813 1.669,10.729 7.69,18.504 17.341,22.874 6.507,2.946 13.532,5.186 20.558,6.47 14.458,2.642 28.994,5.414 43.843,4.071 9.27,-0.839 18.195,-3.088 26.483,-7.44 C 64.106,89.02 71.837,80.936 76.071,69.594 81.444,55.2 85.122,40.551 84.141,25.01 83.153,9.366 77.736,-4.112 65.399,-14.338 c -2.113,-1.752 -4.11,-3.645 -6.121,-5.516 -0.338,-0.315 -0.474,-0.847 -0.732,-1.332" /></g><g
           transform="translate(2542.6846,687.835)"
           id="g344"><path
             id="path346"
             style="fill:#9a1c6f;fill-opacity:1;fill-rule:evenodd;stroke:none"
             d="m 0,0 c 5.129,2.732 8.554,4.234 11.638,6.256 15.711,10.298 16.575,23.658 2.457,36.105 -0.186,0.166 -0.363,0.342 -0.54,0.516 -2.216,2.176 -4.576,2.557 -7.457,1.119 C 3.177,42.536 -0.014,41.578 -0.007,37.439 0.014,25.55 0,13.661 0,0 m -27.728,55.697 c 10.683,1.665 21.562,7.023 28.355,18.591 4.424,7.53 0.774,13.817 -7.9,13.449 -13.301,-0.563 -23.859,-6.782 -30.843,-18.112 -4.785,-7.763 -0.998,-13.799 10.388,-13.928 m 86.103,-74.703 c 7.151,-9.822 13.857,-18.52 19.979,-27.612 4.632,-6.877 7.841,-14.585 8.488,-22.952 0.256,-3.317 -0.067,-7.219 -1.614,-10.036 -5.815,-10.586 -14.462,-18.397 -25.654,-23.132 -9.372,-3.967 -18.509,-2.882 -25.874,3.939 -6.343,5.874 -11.796,12.801 -17.078,19.696 -3.551,4.636 -6.118,10.027 -10.132,14.858 0,-3.626 0.338,-7.289 -0.056,-10.871 -2.082,-18.89 -7.382,-25.796 -27.763,-29.365 -10.453,-1.831 -20.243,1.745 -29.327,6.914 -4.63,2.633 -7.175,7.033 -8.311,11.994 -1.107,4.836 -1.93,9.837 -2.04,14.784 -0.889,39.979 0.098,79.918 3.452,119.777 0.544,6.459 1.784,12.856 2.489,19.303 1.317,12.029 7.731,20.546 18.481,25.359 6.297,2.82 13.126,4.845 19.923,6.071 14.223,2.562 28.553,5.672 43.086,3.916 7.83,-0.948 15.728,-2.881 23.103,-5.674 C 62.511,93.047 71.557,83.805 76.328,70.467 82.017,54.562 86.097,38.532 83.559,21.399 81.621,8.318 76.539,-2.958 66.328,-11.674 63.51,-14.08 60.871,-16.695 58.375,-19.006" /></g><g
           transform="translate(2029.1914,704.8984)"
           id="g348"><path
             id="path350"
             style="fill:#9a1c6f;fill-opacity:1;fill-rule:evenodd;stroke:none"
             d="M 0,0 C 12.513,4.06 16.816,13.394 18.992,23.86 20.958,33.321 15.496,38.742 5.961,37.764 1.401,37.296 -0.024,35.633 -0.01,31.038 0.022,20.897 0,10.758 0,0 m -3.146,-72.636 c 5.909,-0.331 9.978,1.941 12.716,5.973 3.809,5.604 6.249,11.884 6.24,18.81 -0.004,2.194 -0.343,4.481 -1.029,6.561 -1.422,4.316 -3.971,5.722 -8.592,5.221 -4.692,-0.508 -6.532,-2.212 -7.098,-6.801 -0.791,-6.406 -1.625,-12.812 -2.185,-19.239 -0.296,-3.4 -0.052,-6.847 -0.052,-10.525 M -32.554,38.677 c 10.862,1.649 21.491,7.045 28.239,18.283 4.698,7.823 0.908,14.184 -8.211,13.703 -13.026,-0.687 -23.355,-6.853 -30.278,-17.879 -5.07,-8.073 -1.187,-14.214 10.25,-14.107 m 83.618,-49.018 c 1.16,-0.637 1.977,-1.232 2.889,-1.566 23.677,-8.662 35.364,-29.669 30.592,-54.701 -3.715,-19.487 -14.328,-33.235 -32.001,-42.632 -25.141,-13.367 -51.271,-15.721 -78.466,-9.495 -6.451,1.475 -12.535,4.741 -18.635,7.522 -5.525,2.521 -7.883,7.267 -8.181,13.23 -0.424,8.488 -1.371,16.968 -1.412,25.455 -0.162,33.253 -0.275,66.507 0.069,99.757 0.126,12.219 1.672,24.417 2.35,36.637 0.236,4.268 2.469,6.822 5.764,8.998 11.161,7.373 23.733,10.252 36.768,11.637 17.931,1.905 35.405,0.347 52.143,-6.92 C 65.023,67.997 76.885,50.907 78.696,27.257 79.638,14.979 73.849,5.007 63.899,-2.247 59.912,-5.153 55.544,-7.539 51.064,-10.341" /></g><g
           transform="translate(2954.8994,743.5479)"
           id="g352"><path
             id="path354"
             style="fill:#9a1c6f;fill-opacity:1;fill-rule:evenodd;stroke:none"
             d="M 0,0 C 11.231,1.578 22.049,7.09 28.811,18.687 33.189,26.198 29.457,32.389 20.72,32.01 7.378,31.432 -3.133,25.111 -10.098,13.768 -14.836,6.05 -10.957,0.061 0,0 m 38.932,50.064 c 22.464,0.536 38.693,-9.855 50.361,-28.39 4.562,-7.248 5.039,-14.617 0.492,-21.889 -2.754,-4.404 -5.822,-8.715 -9.367,-12.487 -3.367,-3.585 -7.976,-4.81 -13.047,-4.312 -10.333,1.012 -13.213,3.438 -15.691,13.767 -1.31,5.452 -2.489,6.534 -7.334,6.73 -5.379,0.218 -7.318,-1.061 -8.991,-5.926 -2.724,-7.931 -0.634,-14.953 6.656,-20.487 9.354,-7.099 19.137,-13.648 28.343,-20.932 5.842,-4.622 11.394,-9.776 16.323,-15.357 8.707,-9.857 13.524,-21.485 13.441,-34.871 -0.008,-1.248 0.061,-2.502 0.188,-3.744 2.217,-21.775 -7.321,-37.674 -24.944,-49.347 -12.424,-8.23 -25.708,-15.066 -40.904,-15.172 -18.854,-0.13 -36.608,4.697 -51.87,16.365 -6.554,5.009 -10.697,11.799 -12.024,20.115 -0.668,4.191 -1.759,8.347 -2.039,12.56 -0.445,6.713 2.337,12.156 7.878,16.026 3.469,2.422 7.052,1.83 10.636,0.054 5.816,-2.881 11.649,-5.731 17.515,-8.507 4.434,-2.099 9.03,-2.741 13.837,-1.261 3.777,1.164 6.956,3.017 7.962,7.122 1.085,4.439 -1.707,7.039 -4.939,9.207 -5.394,3.619 -10.75,7.317 -16.323,10.643 -22.353,13.338 -33.505,33.625 -36.501,58.853 -1.459,12.278 1.016,24.071 7.446,34.578 14.331,23.427 34.999,36.436 62.896,36.662" /></g><g
           transform="translate(2807.3135,746.2549)"
           id="g356"><path
             id="path358"
             style="fill:#9a1c6f;fill-opacity:1;fill-rule:evenodd;stroke:none"
             d="m 0,0 c -0.582,7.943 -1.351,13.901 -5.061,18.926 -3.847,5.211 -8.443,5.006 -12.043,-0.343 -5.147,-7.645 -4.342,-24.171 1.524,-31.306 4.03,-4.9 9.011,-4.747 11.915,1.034 C -1.595,-7.567 -0.835,-2.786 0,0 m 43.1,-75.197 c -0.861,-6.079 -1.85,-11.224 -2.255,-16.415 -0.521,-6.655 3.219,-9.747 9.982,-8.932 2.469,0.298 5.008,0.455 7.477,0.236 10.76,-0.956 17.221,-8.154 17.278,-18.839 0.035,-6.752 -2.044,-12.865 -5.775,-18.31 -13.513,-19.719 -32.098,-29.388 -56.194,-27.758 -2.99,0.202 -6.006,0.401 -8.939,0.967 -16.548,3.198 -27.393,13.274 -31.944,29.123 -2.941,10.237 -4.468,21.005 -5.493,31.644 -2.643,27.456 -1.909,54.939 1.153,82.338 1.329,11.907 2.647,23.849 4.877,35.602 1.089,5.745 3.936,11.256 6.583,16.574 2.108,4.237 5.93,6.18 10.932,6.671 16.898,1.657 33.722,4.107 50.636,5.511 7.368,0.611 14.97,-0.024 22.312,-1.121 C 70.469,41.088 74.47,36.539 75.86,29.535 78.511,16.197 71.138,3.949 57.385,0.493 51.636,-0.951 45.57,-1.138 38.693,-2.02 c -2.326,-7.289 -2.574,-15.462 -2.338,-23.584 0.107,-3.644 3.502,-4.64 7.338,-3.142 4.15,1.619 8.344,3.646 12.671,4.137 4.322,0.489 9.274,0.33 13.182,-1.341 15.179,-6.487 16.737,-14.733 12.289,-28.992 -3.389,-10.863 -18.939,-23.803 -33.076,-20.309 -1.618,0.399 -3.421,0.054 -5.659,0.054" /></g><g
           transform="translate(2185.4014,747.9189)"
           id="g360"><path
             id="path362"
             style="fill:#9a1c6f;fill-opacity:1;fill-rule:evenodd;stroke:none"
             d="m 0,0 c -0.884,6.432 -2.972,13.771 -5.73,17.311 -3.98,5.103 -8.481,4.947 -12.073,-0.418 -5.132,-7.668 -4.302,-24.204 1.57,-31.307 3.882,-4.697 8.623,-4.811 11.471,0.487 C -2.468,-9.664 -1.536,-4.67 0,0 m 35.824,-3.691 c -3.025,-7.235 -1.874,-15.11 -2.347,-22.737 -0.268,-4.308 2.979,-5.627 7.241,-3.967 4.15,1.619 8.352,3.616 12.684,4.11 4.327,0.492 9.096,0.103 13.223,-1.258 11.671,-3.847 16.428,-13.784 13.255,-26.181 -3.764,-14.707 -18.731,-24.882 -33.97,-23.158 -1.681,0.191 -3.401,0.027 -5.605,0.027 -0.773,-5.666 -1.825,-11.026 -2.16,-16.43 -0.443,-7.134 2.775,-9.697 9.834,-8.942 3.199,0.344 6.572,0.55 9.685,-0.078 11.16,-2.25 17.267,-11.473 14.689,-22.99 -1.172,-5.238 -3.313,-10.639 -6.379,-15.009 -13.367,-19.047 -31.802,-28.218 -55.252,-26.551 -3.475,0.247 -6.964,0.676 -10.372,1.38 -16.327,3.373 -26.599,13.829 -30.745,29.353 -3.132,11.735 -5.031,24.006 -5.762,36.142 -2.185,36.263 -0.622,72.452 5.586,108.296 1.211,6.989 4.171,13.786 7.078,20.336 2.131,4.801 6.369,6.971 12.014,7.479 16.404,1.475 32.733,3.756 49.127,5.37 5.932,0.584 12.016,0.71 17.937,0.115 C 73.525,39.815 75.874,26.897 71.526,13.273 68.971,5.266 62.378,0.798 54.525,-1.131 48.767,-2.545 42.722,-2.795 35.824,-3.691" /></g><g
           transform="translate(2696.3555,739.3555)"
           id="g364"><path
             id="path366"
             style="fill:#9a1c6f;fill-opacity:1;fill-rule:evenodd;stroke:none"
             d="m 0,0 c -0.718,8.431 -1.427,14.653 -5.646,19.699 -3.565,4.265 -7.925,3.993 -11.187,-0.464 -5.512,-7.531 -4.84,-24.616 1.255,-31.865 3.852,-4.58 8.756,-4.642 11.507,0.588 C -1.819,-7.761 -0.899,-2.779 0,0 m 43.408,-33.747 c -0.285,-28.539 -1.721,-59.213 -7.369,-89.528 -0.952,-5.105 -2.417,-10.268 -4.603,-14.958 -7.991,-17.135 -30.003,-23.052 -45.917,-12.681 -6.311,4.112 -9.649,10.268 -10.694,17.356 -4.898,33.177 -7.945,66.492 -5.398,100.068 0.849,11.196 2.35,22.341 3.345,33.528 0.819,9.189 4.337,17.613 8.65,25.359 6.151,11.051 16.563,17.128 29.025,19.155 4.396,0.715 8.978,0.714 13.445,0.484 9.063,-0.468 14.184,-4.853 16.035,-13.783 1.061,-5.119 1.891,-10.356 2.101,-15.569 0.63,-15.73 0.907,-31.472 1.38,-49.431" /></g><g
           transform="translate(678.5484,675.1064)"
           id="g368"><path
             id="path370"
             style="fill:#e80771;fill-opacity:1;fill-rule:evenodd;stroke:none"
             d="M 0,0 C 0.745,22.038 0.002,43.857 -3.024,65.446 -7.601,65.93 -8.489,63.52 -8.848,60.501 -10.88,43.391 -13.273,26.315 -14.867,9.166 -16.009,-3.129 -13.969,-4.43 -2.006,-1.191 -1.546,-1.067 -1.152,-0.695 0,0 m -37.167,65.5 c 10.674,1.707 21.299,7.089 28.052,18.297 4.677,7.761 0.786,14.307 -8.241,13.761 C -30.327,96.773 -40.692,90.655 -47.614,79.65 -52.666,71.618 -48.71,65.385 -37.167,65.5 M 5.539,-53.315 c -7.893,-0.458 -15.468,-0.898 -23.418,-1.36 1.957,-8.878 0.338,-16.575 -2.535,-24.172 -3.896,-10.299 -11.61,-15.657 -22.226,-16.043 -19.696,-0.716 -31.415,5.048 -38.518,25.941 -4.753,13.981 -5.034,28.53 -3.945,42.993 1.424,18.901 3.108,37.822 5.777,56.579 3.278,23.041 12.327,43.988 24.957,63.597 14.568,22.618 35.563,29.18 60.831,26 25.8,-3.247 41.715,-18.626 48.333,-42.85 5.379,-19.682 9.177,-39.866 12.472,-60.026 3.55,-21.728 4.4,-43.724 1.821,-65.707 -0.842,-7.181 -1.874,-14.344 -3.017,-21.485 -1.267,-7.923 -5.859,-13.505 -13.626,-15.16 -6.744,-1.437 -13.86,-2.364 -20.695,-1.88 -15.526,1.102 -22.61,11.265 -25.43,25.979 -0.412,2.151 -0.461,4.373 -0.781,7.594" /></g><g
           transform="translate(473.0909,688.1631)"
           id="g372"><path
             id="path374"
             style="fill:#e80771;fill-opacity:1;fill-rule:evenodd;stroke:none"
             d="m 0,0 c 4.781,2.4 8.186,3.768 11.235,5.697 15.931,10.088 17.08,23.235 3.279,36.008 -0.182,0.17 -0.363,0.342 -0.533,0.524 -2.328,2.476 -4.822,2.982 -8.037,1.414 -3.267,-1.594 -6.087,-2.934 -6.009,-7.4 C 0.131,24.805 0,13.359 0,0 m -27.703,49.406 c 10.835,1.76 21.766,7.094 28.498,18.744 4.346,7.518 0.596,13.704 -8.149,13.305 -13.338,-0.609 -23.861,-6.918 -30.804,-18.295 -4.71,-7.716 -0.801,-13.717 10.455,-13.754 m 85.759,-68.812 c 6.005,-7.783 11.677,-14.742 16.906,-22.021 5.12,-7.126 9.009,-14.916 11.217,-23.517 1.933,-7.525 0.935,-14.214 -4.144,-20.312 -5.491,-6.59 -11.541,-12.441 -19.255,-16.375 -10.967,-5.593 -21.59,-4.978 -30.402,3.702 -6.512,6.415 -11.938,13.985 -17.465,21.328 -2.925,3.886 -5.031,8.388 -8.598,12.395 0,-3.588 0.165,-7.183 -0.026,-10.759 -1.066,-19.855 -9.03,-27.096 -28.642,-29.907 -10.212,-1.464 -19.717,2.099 -28.521,7.216 -5.417,3.149 -7.48,8.604 -8.706,14.281 -0.944,4.373 -1.724,8.909 -1.643,13.356 0.59,31.951 1.174,63.905 2.289,95.839 0.452,12.95 2.379,25.838 3.356,38.776 1.217,16.106 9.812,26.455 24.795,31.25 8.022,2.566 16.429,4.174 24.78,5.414 14.307,2.125 28.681,4.203 43.131,0.646 9.068,-2.23 17.774,-5.302 24.871,-11.524 3.713,-3.255 7.663,-6.82 9.893,-11.089 C 81.694,60.527 86.508,40.569 83.32,19.305 81.364,6.256 75.464,-4.797 65.025,-13.207 c -2.311,-1.861 -4.445,-3.944 -6.969,-6.199" /></g><g
           transform="translate(1004.3516,770.1768)"
           id="g376"><path
             id="path378"
             style="fill:#e80771;fill-opacity:1;fill-rule:evenodd;stroke:none"
             d="M 0,0 C 0.001,4.838 0.224,8.905 -3.863,10.834 -7.845,12.716 -11.212,10.527 -13.981,7.9 -20.594,1.63 -24.38,-6.028 -24.416,-15.299 c -0.013,-3.345 0.414,-6.668 3.843,-8.305 3.374,-1.607 6.424,-0.111 8.985,2 C -4.491,-15.75 -0.845,-8.043 0,0 m 20.258,-43.7 c -7.198,2.112 -13.294,0.302 -19.404,0.075 -5.932,-0.221 -12.035,-0.649 -17.797,0.432 -11.073,2.076 -18.67,10.461 -19.641,21.625 -0.532,6.121 -0.056,12.51 1.117,18.556 1.889,9.747 7.8,16.879 17.449,19.77 8.325,2.495 16.88,5.074 25.467,5.667 17.914,1.236 35.917,1.479 53.884,1.487 5.612,0.002 11.596,-1.17 16.773,-3.331 21.226,-8.861 27.832,-21.851 24.669,-42.28 -2.334,-15.086 -8.539,-28.626 -16.771,-41.324 -12.482,-19.253 -28.458,-35.377 -45.423,-50.61 -1.301,-1.168 -2.69,-2.241 -3.959,-3.441 -1.489,-1.408 -3.166,-3.162 -1.289,-5.042 0.906,-0.907 3.02,-0.908 4.552,-0.802 1.444,0.102 2.812,1.001 4.262,1.345 13.292,3.161 26.764,3.383 40.195,1.552 9.587,-1.305 15.033,-7.298 16.137,-17.019 1.72,-15.142 -3.877,-27.965 -13.743,-38.977 -2.14,-2.387 -5.826,-3.984 -9.072,-4.691 -25.008,-5.445 -50.266,-8.808 -75.809,-4.834 -9.527,1.481 -18.857,4.498 -28.125,7.319 -11.504,3.502 -20.089,19.958 -18.779,31.995 2.507,23.038 10.514,43.524 25.587,61.213 7.457,8.753 14.855,17.46 24.72,23.786 3.926,2.518 7.275,6.084 10.442,9.577 1.87,2.062 2.868,4.916 4.558,7.952" /></g><g
           transform="translate(825.421,772.1338)"
           id="g380"><path
             id="path382"
             style="fill:#e80771;fill-opacity:1;fill-rule:evenodd;stroke:none"
             d="m 0,0 c -0.435,3.656 -0.606,7.363 -4.455,8.996 -3.415,1.449 -6.397,-0.09 -8.945,-2.279 -7.413,-6.371 -11.264,-14.565 -11.528,-24.279 -0.088,-3.237 0.628,-7.155 4.296,-7.913 2.561,-0.529 6.131,0.213 8.243,1.762 C -4.456,-17.896 -1.065,-9.416 0,0 m 20.6,-45.685 c -7.199,2.162 -13.303,0.316 -19.427,0.086 -5.932,-0.221 -12.037,-0.624 -17.798,0.468 -11.037,2.091 -18.612,10.507 -19.566,21.694 -0.522,6.121 -0.018,12.506 1.158,18.552 1.899,9.76 7.858,16.84 17.506,19.714 8.329,2.482 16.882,5.058 25.47,5.648 17.915,1.23 35.918,1.472 53.885,1.472 5.61,0 11.592,-1.192 16.764,-3.362 21.393,-8.974 27.729,-22.023 24.572,-42.331 -2.345,-15.083 -8.566,-28.615 -16.804,-41.31 -12.491,-19.248 -28.472,-35.367 -45.441,-50.594 -1.3,-1.169 -2.896,-2.108 -3.892,-3.488 -0.911,-1.262 -1.977,-3.229 -1.587,-4.439 0.706,-2.192 2.731,-2.306 4.956,-1.388 9.218,3.801 19.059,3.711 28.763,4.075 4.966,0.187 10.011,-0.243 14.942,-0.944 9.951,-1.414 15.672,-7.248 16.795,-17.254 1.666,-14.843 -3.738,-27.515 -13.3,-38.412 -2.266,-2.583 -6.161,-4.41 -9.618,-5.168 -25.001,-5.475 -50.265,-8.807 -75.806,-4.825 -9.526,1.484 -18.856,4.511 -28.118,7.346 -11.413,3.494 -20.018,19.932 -18.691,32.05 2.524,23.042 10.57,43.507 25.635,61.195 7.457,8.754 14.873,17.441 24.739,23.767 3.924,2.516 7.264,6.095 10.422,9.596 1.854,2.055 2.824,4.906 4.441,7.852" /></g><g
           transform="translate(1317.3281,745.8955)"
           id="g384"><path
             id="path386"
             style="fill:#e80771;fill-opacity:1;fill-rule:evenodd;stroke:none"
             d="m 0,0 c -0.83,6.405 -1.923,12.246 -5.651,17.233 -3.568,4.774 -8.286,4.652 -11.682,-0.049 -5.306,-7.347 -4.544,-24.955 1.379,-31.924 3.8,-4.469 8.858,-4.449 11.524,0.779 C -2.243,-9.668 -1.425,-4.68 0,0 m 39.691,-74.713 c -0.769,-5.767 -1.723,-10.907 -2.08,-16.088 -0.521,-7.567 2.563,-10.106 10.113,-9.341 3.196,0.325 6.576,0.473 9.675,-0.202 10.898,-2.372 16.726,-11.241 14.486,-22.472 -0.91,-4.563 -2.545,-9.288 -5.041,-13.174 -12.928,-20.131 -31.433,-30.004 -55.525,-28.901 -1.996,0.091 -3.991,0.267 -5.978,0.478 -18.341,1.951 -30.85,11.966 -35.918,29.286 -3.542,12.104 -5.363,24.952 -6.132,37.578 -2.208,36.263 -0.383,72.422 5.509,108.317 1.221,7.435 3.351,14.59 7.665,20.932 2.695,3.962 6.155,5.942 11.143,6.419 16.394,1.567 32.709,4.022 49.117,5.342 7.865,0.633 15.99,0.201 23.783,-1.065 C 68.285,41.133 71.713,36.148 72.527,28.184 73.921,14.557 66.901,4.058 53.579,0.841 47.823,-0.548 41.783,-0.752 35.253,-1.572 c -3.074,-7.239 -1.855,-15.354 -2.336,-23.183 -0.243,-3.951 3.486,-5.432 7.517,-3.343 7.096,3.678 14.39,5.398 22.387,3.618 6.163,-1.372 10.98,-4.723 14.821,-9.504 1.172,-1.457 1.977,-3.487 2.241,-5.355 2.893,-20.455 -14.236,-37.753 -34.89,-35.396 -1.469,0.168 -2.972,0.022 -5.302,0.022" /></g><g
           transform="translate(1153.0654,749.1748)"
           id="g388"><path
             id="path390"
             style="fill:#e80771;fill-opacity:1;fill-rule:evenodd;stroke:none"
             d="m 0,0 c 0.749,-6.643 1.779,-12.754 5.765,-17.91 3.603,-4.662 8.317,-4.346 11.652,0.5 5.065,7.361 4.404,24.14 -1.232,31.305 C 12.311,18.82 7.07,18.818 4.235,13.271 2.15,9.191 1.365,4.447 0,0 m 49.973,-100.207 c 7.979,1.39 14.527,2.821 21.15,3.618 10.899,1.311 17.708,-3.088 21.362,-13.339 4.269,-11.975 3.113,-23.55 -2.921,-34.641 -2.68,-4.928 -6.322,-9.088 -11.667,-11.194 -16.076,-6.335 -32.683,-9.21 -49.891,-6.363 -25.195,4.165 -39.296,19.051 -41.875,44.571 -1.002,9.913 -1.152,19.946 -1.146,29.923 0.01,16.984 0.092,33.982 0.818,50.944 0.63,14.704 2.093,29.374 3.386,44.042 0.63,7.14 3.811,13.393 7.804,19.23 2.951,4.313 7.158,6.912 12.107,8.299 8.038,2.252 16.214,2.776 24.473,1.515 4.66,-0.711 8.16,-3.113 11.099,-6.907 6.476,-8.355 7.707,-18.227 8.818,-28.169 2.317,-20.726 0.889,-41.406 -0.803,-62.092 -1.055,-12.909 -1.791,-25.842 -2.714,-39.437" /></g></g></g></g></svg>
